<?xml version="1.0" standalone="no"?>
<!DOCTYPE svg PUBLIC "-//W3C//DTD SVG 20010904//EN"
 "http://www.w3.org/TR/2001/REC-SVG-20010904/DTD/svg10.dtd">
<svg version="1.0" xmlns="http://www.w3.org/2000/svg"
 width="1714.000000pt" height="1714.000000pt" viewBox="0 0 1714.000000 1714.000000"
 preserveAspectRatio="xMidYMid meet">
<metadata>
Created by potrace 1.11, written by Peter Selinger 2001-2013
</metadata>
<g transform="translate(0.000000,1714.000000) scale(0.100000,-0.100000)"
fill="#000000" stroke="none">
<path d="M5143 16570 c-21 -9 -63 -37 -93 -61 -91 -74 -140 -103 -264 -158
-66 -29 -129 -57 -140 -62 -65 -29 -186 -120 -247 -185 -114 -125 -252 -384
-304 -574 -146 -532 -147 -534 -184 -582 -12 -15 -77 -71 -144 -125 -226 -180
-289 -237 -539 -483 -137 -134 -255 -248 -263 -253 -12 -6 -14 -2 -9 25 19
102 79 221 171 339 31 41 60 76 63 79 3 3 28 32 55 65 28 33 56 66 63 73 33
36 143 184 181 245 66 107 100 199 116 317 3 25 8 52 10 60 2 8 7 34 10 57 26
186 96 291 285 432 131 98 138 106 138 157 0 45 -2 48 -49 46 -48 -3 -93 -30
-169 -102 -184 -175 -223 -209 -370 -318 -239 -179 -396 -345 -472 -497 -47
-94 -105 -269 -123 -374 -3 -19 -7 -37 -9 -40 -2 -3 -7 -31 -11 -61 -3 -30 -8
-62 -10 -70 -9 -35 -21 -195 -30 -400 -10 -221 -15 -238 -84 -325 -31 -38 -58
-72 -61 -75 -7 -7 -54 -69 -115 -150 -27 -36 -52 -67 -55 -70 -26 -23 -305
-430 -363 -531 -15 -25 -36 -54 -48 -65 -20 -18 -20 -18 -15 21 12 105 46 194
163 428 177 355 194 415 208 747 8 167 14 274 20 322 7 59 40 142 76 194 32
47 158 194 210 246 15 15 32 35 38 46 11 21 25 112 17 112 -3 0 -27 -5 -54
-10 -60 -13 -103 -55 -225 -218 -46 -62 -141 -172 -210 -245 -271 -286 -364
-423 -401 -594 -11 -53 -14 -131 -11 -363 2 -162 6 -315 9 -340 9 -71 16 -236
16 -345 0 -209 -17 -285 -103 -465 -35 -74 -72 -153 -82 -175 -10 -22 -35 -76
-56 -120 -85 -182 -213 -505 -250 -633 -7 -23 -17 -41 -23 -39 -27 9 -5 200
44 378 80 286 95 378 95 554 -1 81 -12 212 -20 225 -2 3 -6 25 -10 50 -4 25
-8 47 -10 50 -2 3 -6 30 -10 60 -4 30 -9 58 -11 62 -7 11 -18 121 -18 183 0
129 25 199 135 386 32 53 69 119 83 146 30 61 70 182 62 190 -7 8 -116 -16
-116 -25 0 -4 -11 -19 -25 -34 -39 -42 -121 -178 -258 -428 -19 -36 -52 -94
-72 -130 -79 -143 -185 -370 -209 -450 -64 -212 -50 -410 59 -841 15 -57 28
-111 30 -119 12 -60 48 -197 65 -251 23 -70 56 -197 65 -244 7 -41 8 -172 1
-183 -3 -5 -8 -23 -11 -40 -3 -18 -19 -89 -35 -158 -26 -109 -60 -264 -75
-345 -3 -13 -7 -35 -10 -49 -2 -14 -7 -41 -11 -60 -3 -19 -14 -83 -24 -141
-10 -59 -22 -115 -28 -125 -9 -16 -11 -14 -20 16 -11 44 -5 176 14 315 8 53 7
346 0 409 -10 77 -58 207 -136 371 -71 148 -127 297 -138 365 -17 105 -5 184
56 356 28 78 55 166 61 195 15 75 19 159 7 159 -23 0 -106 -67 -124 -100 -26
-47 -67 -160 -107 -300 -19 -63 -56 -191 -83 -285 -125 -429 -122 -674 15
-1000 25 -60 173 -359 210 -425 11 -19 62 -116 113 -215 l94 -179 0 -76 c0
-41 -5 -127 -9 -190 -5 -63 -9 -212 -8 -330 1 -195 4 -279 18 -448 2 -31 7
-102 10 -157 4 -55 9 -103 11 -107 12 -18 -16 -15 -34 5 -35 37 -69 155 -87
302 -13 109 -25 196 -31 230 -2 11 -7 36 -10 55 -18 101 -77 273 -124 355 -11
19 -29 50 -39 69 -11 19 -53 83 -94 143 -128 189 -181 291 -213 419 -14 56
-16 94 -11 209 4 77 9 157 12 179 12 82 13 236 2 243 -9 6 -41 7 -76 4 -12 -1
-50 -101 -61 -162 -10 -50 -17 -146 -25 -329 -3 -63 -7 -128 -10 -145 -14 -97
-29 -320 -29 -430 1 -193 21 -303 80 -433 40 -86 284 -436 389 -557 14 -16 36
-41 47 -55 38 -46 133 -155 138 -160 3 -3 30 -34 60 -70 30 -36 57 -67 60 -70
20 -18 71 -92 87 -125 13 -24 27 -88 36 -160 9 -66 19 -131 22 -145 4 -22 12
-62 20 -111 6 -30 94 -383 125 -494 16 -60 30 -112 30 -114 0 -2 -7 2 -16 9
-30 26 -63 97 -109 235 -54 164 -57 172 -112 286 -80 168 -151 258 -322 409
-41 36 -95 83 -119 105 -68 60 -161 182 -194 254 -26 56 -68 223 -84 336 -3
22 -11 65 -18 95 l-13 55 -42 -2 c-23 0 -45 -3 -47 -6 -8 -8 -9 -110 -1 -164
4 -29 20 -114 37 -190 29 -134 55 -277 66 -358 13 -95 57 -305 76 -365 23 -74
76 -177 121 -235 89 -114 304 -309 552 -500 50 -38 92 -72 95 -75 3 -3 46 -35
95 -72 50 -36 100 -77 111 -90 12 -12 45 -86 74 -163 79 -215 132 -335 271
-622 43 -89 81 -174 85 -188 6 -24 5 -26 -12 -17 -47 25 -101 109 -205 311
-180 355 -261 440 -511 537 -207 80 -265 112 -344 189 -51 51 -80 89 -103 140
-18 39 -48 102 -66 140 -30 62 -110 163 -121 152 -13 -12 -11 -134 2 -185 27
-102 191 -448 317 -667 99 -173 230 -329 327 -390 98 -62 518 -274 702 -354
53 -24 108 -54 122 -68 14 -14 56 -78 92 -142 154 -267 466 -712 618 -881 72
-79 111 -130 101 -130 -3 0 -29 12 -58 26 -69 35 -180 149 -297 304 -51 69
-137 168 -189 220 -109 108 -178 148 -346 200 -55 17 -131 40 -170 52 -222 69
-392 195 -492 365 -55 95 -81 133 -121 185 -25 32 -48 58 -52 58 -3 0 -17 -12
-31 -26 -20 -21 -24 -36 -23 -82 0 -65 4 -72 167 -342 179 -297 264 -415 396
-552 166 -174 308 -243 951 -468 469 -163 444 -149 672 -375 101 -99 228 -220
283 -269 55 -49 116 -103 135 -120 19 -17 68 -58 109 -91 95 -78 165 -144 159
-150 -9 -10 -168 53 -168 66 0 4 -10 11 -22 15 -29 9 -104 68 -217 172 -151
140 -163 151 -216 192 -83 64 -165 109 -250 137 -82 26 -114 28 -450 34 -104
2 -197 22 -240 53 -16 11 -68 56 -115 99 -47 44 -107 94 -135 113 -55 38 -62
36 -88 -28 -15 -36 -15 -37 16 -80 63 -86 122 -147 342 -354 182 -171 233
-215 330 -287 138 -103 325 -181 485 -202 25 -3 56 -8 70 -10 27 -4 115 -11
250 -21 47 -3 87 -7 90 -9 3 -2 50 -6 105 -9 396 -25 445 -35 552 -114 93 -68
360 -242 373 -242 5 0 10 -3 10 -7 0 -5 10 -13 23 -19 12 -6 102 -56 199 -112
97 -56 179 -102 182 -102 15 0 126 -72 121 -79 -9 -15 -140 -3 -203 18 -70 24
-147 67 -252 143 -243 173 -315 202 -500 198 -578 -13 -739 20 -994 203 -83
60 -119 70 -136 38 -35 -65 1 -115 185 -256 168 -129 504 -355 529 -355 3 0
27 -13 53 -28 180 -105 429 -156 637 -131 144 18 241 24 526 34 80 3 156 7
170 10 14 3 73 7 132 10 113 5 131 1 238 -48 102 -46 298 -128 405 -168 44
-17 94 -36 110 -43 17 -7 111 -39 210 -71 99 -31 192 -62 208 -67 65 -24 9
-48 -117 -50 -129 -1 -167 10 -362 103 -262 126 -327 134 -544 69 -165 -50
-210 -55 -470 -55 -284 0 -315 5 -485 84 -137 64 -173 75 -190 61 -26 -22 -18
-68 18 -102 59 -56 223 -149 327 -187 19 -7 44 -17 55 -21 19 -8 144 -53 325
-119 345 -123 617 -158 880 -111 30 5 72 12 94 16 49 7 49 7 186 38 181 42
391 111 536 176 37 17 45 18 95 5 30 -8 65 -16 79 -19 14 -3 102 -20 195 -40
157 -32 207 -41 275 -52 67 -11 160 -26 210 -34 30 -5 80 -12 110 -15 30 -4
66 -8 80 -10 14 -2 54 -7 90 -10 36 -4 69 -11 74 -15 20 -19 -149 -69 -220
-64 -22 1 -97 13 -165 27 -325 66 -357 64 -559 -48 -63 -34 -129 -70 -147 -79
-43 -22 -193 -64 -251 -71 -26 -3 -56 -8 -67 -10 -102 -20 -368 -26 -465 -11
-30 4 -71 10 -90 13 -19 2 -61 8 -93 12 -56 8 -58 7 -52 -13 3 -12 8 -32 11
-45 7 -35 11 -40 52 -57 73 -31 140 -44 332 -69 69 -9 141 -20 160 -25 40 -11
179 -38 230 -46 19 -2 44 -7 56 -9 11 -3 40 -7 65 -10 24 -3 67 -9 95 -13 98
-16 313 -12 419 7 86 16 212 58 272 90 10 5 82 41 160 80 152 75 288 157 407
245 97 72 106 76 170 76 105 0 107 -19 8 -81 -177 -111 -341 -253 -697 -605
-258 -254 -368 -332 -540 -382 -114 -34 -208 -47 -365 -52 l-55 -1 80 -30 c84
-32 296 -93 355 -102 19 -3 45 -8 57 -11 11 -2 43 -8 70 -12 26 -3 57 -8 68
-10 10 -2 51 -6 90 -9 38 -3 84 -8 100 -10 33 -4 145 -7 242 -6 l62 1 11 43
c154 624 439 1061 788 1210 35 15 74 27 88 27 43 0 132 -37 207 -86 74 -50
220 -188 272 -259 17 -22 32 -42 35 -45 26 -23 125 -191 180 -305 58 -118 131
-308 145 -373 2 -9 11 -44 19 -77 9 -33 19 -73 22 -90 3 -16 9 -34 14 -39 16
-16 363 -9 473 9 155 26 272 50 367 75 154 40 301 89 270 90 -255 6 -369 26
-505 89 -119 56 -201 123 -458 377 -244 240 -266 261 -387 361 -138 113 -234
187 -307 235 -40 26 -73 52 -73 58 0 7 28 10 77 8 72 -2 81 -5 133 -41 219
-152 256 -174 516 -302 234 -116 291 -136 414 -152 92 -12 316 -6 444 12 17 2
54 7 81 10 28 3 77 10 110 15 33 5 78 12 100 15 22 4 51 8 65 11 42 7 84 14
115 19 17 2 41 6 55 9 14 3 67 12 118 21 177 30 306 85 300 128 -3 21 -37 64
-49 60 -17 -6 -199 -35 -247 -39 -84 -8 -278 -8 -347 0 -188 22 -352 76 -525
172 -52 29 -122 60 -155 70 -75 22 -185 22 -293 -1 -45 -9 -92 -18 -105 -20
-12 -2 -51 -9 -87 -15 -94 -17 -153 -14 -228 11 -84 27 -88 30 -68 41 27 15
62 21 211 33 44 4 94 9 110 11 17 2 55 6 85 10 30 3 64 8 75 10 11 3 38 7 60
10 32 4 231 42 360 69 11 3 74 18 140 34 l120 30 170 -68 c195 -78 371 -133
500 -155 17 -2 66 -11 110 -19 44 -8 104 -18 134 -22 30 -4 63 -9 75 -11 27
-7 126 -6 196 2 144 14 306 53 480 113 122 42 531 203 615 242 66 30 152 89
193 131 l32 34 -29 28 c-28 27 -31 27 -68 16 -21 -7 -67 -26 -103 -43 -164
-75 -191 -86 -243 -97 -69 -14 -375 -19 -487 -8 -47 5 -158 29 -247 54 -238
67 -258 66 -453 -20 -261 -114 -353 -144 -475 -150 -51 -3 -145 18 -145 33 0
7 153 61 173 61 35 0 767 279 863 329 52 27 147 28 484 7 52 -4 120 -8 150
-11 30 -2 102 -7 160 -10 58 -3 139 -8 180 -11 221 -18 319 -9 475 42 161 53
311 142 695 409 177 123 230 171 266 239 28 55 29 55 9 71 -44 33 -57 29 -197
-59 -150 -94 -188 -112 -251 -121 -23 -3 -49 -8 -58 -11 -9 -2 -32 -7 -50 -9
-19 -3 -72 -11 -119 -19 -57 -10 -163 -14 -325 -14 -132 0 -260 -3 -285 -7
-89 -15 -177 -64 -390 -216 -132 -94 -229 -131 -380 -144 -64 -6 -65 -6 -45
13 11 11 70 45 130 77 255 134 594 344 806 500 70 51 120 62 354 80 153 11
225 16 280 20 85 5 195 15 230 20 261 34 345 55 465 112 83 40 182 102 245
155 11 9 49 39 85 68 187 148 505 467 550 551 19 34 4 86 -28 97 -32 11 -52
-1 -162 -98 -143 -127 -181 -149 -301 -176 -13 -3 -116 -7 -229 -8 -209 -3
-255 -10 -355 -47 -59 -22 -208 -117 -260 -166 -212 -200 -344 -307 -435 -353
-63 -32 -130 -52 -130 -40 0 10 67 70 270 237 85 70 261 232 390 360 195 193
243 236 285 252 27 11 149 55 270 99 578 211 677 248 767 288 182 80 303 174
418 325 125 163 407 607 449 707 12 30 24 82 26 117 l4 63 -44 0 c-42 0 -46
-3 -80 -49 -20 -28 -66 -99 -103 -158 -86 -137 -108 -163 -212 -238 -112 -81
-181 -112 -384 -173 -191 -57 -274 -97 -369 -175 -61 -51 -175 -178 -227 -255
-13 -19 -27 -37 -30 -40 -3 -3 -19 -23 -35 -46 -56 -77 -120 -146 -165 -178
-55 -39 -110 -67 -110 -56 0 8 77 110 91 120 3 3 63 80 131 171 150 198 314
441 458 679 l107 175 99 52 c54 29 198 98 319 155 121 56 256 122 300 146 275
151 431 366 665 917 83 196 100 250 100 323 0 42 -3 52 -17 52 -32 0 -88 -75
-128 -171 -22 -52 -50 -113 -63 -136 -26 -47 -99 -126 -152 -165 -56 -40 -178
-102 -255 -127 -92 -30 -130 -47 -191 -86 -122 -78 -232 -218 -340 -436 -87
-174 -142 -265 -181 -299 -37 -33 -51 -34 -35 -3 6 10 17 34 25 53 8 19 34 76
57 125 184 393 218 471 275 640 15 44 36 94 47 112 10 18 97 92 191 165 273
210 462 371 614 525 114 114 139 168 217 460 37 138 41 155 51 242 4 30 9 63
11 75 2 11 6 38 9 61 4 22 13 72 20 110 8 39 19 97 25 130 5 33 12 69 14 80 8
42 19 141 19 168 -1 56 -59 79 -87 35 -8 -13 -32 -104 -55 -203 -22 -99 -49
-206 -60 -237 -41 -118 -121 -216 -298 -364 -241 -202 -315 -313 -437 -658
-31 -87 -66 -182 -78 -210 -22 -52 -58 -107 -58 -89 0 6 23 102 51 214 28 112
52 212 55 222 2 9 6 25 8 35 19 79 66 329 71 377 15 147 47 231 117 305 101
108 144 158 309 360 309 378 435 590 465 780 11 66 3 476 -10 547 -7 37 -16
141 -21 243 -12 234 -44 435 -77 477 -9 11 -75 10 -86 -2 -5 -5 -4 -230 2
-265 29 -199 26 -301 -13 -418 -38 -115 -77 -187 -206 -382 -144 -218 -183
-296 -225 -450 -16 -57 -24 -94 -45 -200 -3 -14 -17 -99 -30 -190 -14 -91 -28
-173 -31 -182 -3 -9 -6 -25 -8 -35 -8 -37 -34 -88 -55 -108 l-23 -20 6 40 c5
38 12 118 21 235 23 309 23 771 0 1004 -6 57 30 143 160 381 202 372 331 661
350 787 17 105 7 275 -26 478 -57 345 -230 863 -301 901 -12 7 -18 6 -18 -1 0
-6 -11 -8 -25 -6 -13 3 -27 0 -31 -5 -9 -15 15 -114 67 -278 65 -202 76 -251
74 -341 -2 -94 -22 -150 -135 -390 -96 -203 -111 -242 -139 -375 -17 -75 -19
-118 -16 -260 2 -93 7 -181 10 -195 3 -14 8 -91 10 -172 3 -122 2 -148 -10
-148 -14 0 -20 22 -29 95 -5 34 -21 153 -31 220 -12 81 -43 226 -80 375 -24
96 -49 202 -56 235 -24 114 -18 152 76 485 48 171 91 331 99 370 3 14 16 77
30 140 13 63 27 143 31 177 3 34 8 72 10 85 8 36 7 219 0 263 -12 67 -55 206
-87 280 -27 63 -129 255 -148 280 -8 10 -49 86 -145 269 -69 132 -145 256
-192 314 -28 34 -41 42 -68 42 -18 0 -36 6 -38 13 -3 7 -6 6 -6 -5 -1 -10 -11
-18 -26 -20 l-24 -3 43 -90 c24 -49 69 -132 100 -184 75 -123 131 -234 149
-296 13 -47 15 -208 3 -262 -2 -11 -8 -43 -12 -70 -3 -26 -8 -57 -10 -68 -3
-11 -7 -36 -10 -55 -3 -19 -10 -55 -16 -80 -5 -25 -13 -58 -16 -75 -9 -43 -8
-301 1 -360 11 -67 22 -114 68 -280 49 -178 66 -260 74 -358 6 -71 5 -79 -10
-75 -10 2 -25 23 -35 53 -109 302 -191 504 -276 684 -30 62 -54 115 -54 117 0
2 -18 41 -41 86 -22 46 -57 124 -77 173 l-36 90 0 175 c-1 151 4 243 19 400 2
19 6 71 10 115 3 44 8 100 11 125 2 25 4 101 4 170 0 219 -15 310 -70 426 -62
129 -131 215 -370 464 -93 96 -172 190 -213 251 -20 30 -64 87 -97 127 l-62
72 -54 0 c-52 0 -54 -1 -54 -28 0 -36 47 -110 119 -186 138 -145 181 -213 211
-331 23 -90 31 -173 35 -376 7 -315 37 -418 237 -799 88 -167 114 -228 132
-317 25 -118 7 -100 -171 167 -143 215 -244 355 -429 591 l-122 156 -6 84 c-3
46 -8 136 -11 199 -8 170 -17 278 -30 365 -1 11 -6 43 -10 70 -22 161 -91 359
-176 506 -82 142 -166 235 -323 359 -56 43 -149 116 -207 162 -58 46 -158 133
-222 193 -153 144 -203 170 -284 149 l-22 -6 18 -37 c23 -42 71 -89 161 -156
104 -77 179 -159 216 -240 29 -64 74 -244 74 -299 0 -42 38 -173 71 -242 51
-109 178 -284 312 -429 85 -92 192 -242 226 -317 25 -56 53 -168 41 -168 -5 0
-43 37 -87 81 -43 45 -92 96 -109 113 -73 74 -337 317 -419 387 -22 19 -60 53
-85 76 -25 22 -83 72 -130 109 -98 78 -138 119 -152 154 -9 23 -115 394 -123
430 -5 23 -49 155 -79 235 -41 108 -131 284 -181 350 -59 79 -137 157 -199
200 -28 19 -120 66 -204 105 -153 70 -188 90 -316 184 -71 51 -154 87 -186 79
-14 -4 -16 -11 -10 -37 10 -46 15 -53 103 -147 79 -84 85 -94 190 -319 89
-191 239 -371 466 -560 235 -195 289 -254 331 -365 15 -40 -10 -31 -97 33 -63
47 -213 145 -293 193 -8 4 -44 26 -81 47 -36 22 -103 61 -150 87 -111 63 -130
81 -280 260 -177 211 -297 316 -474 415 -158 87 -441 180 -600 196 -33 4 -63
8 -66 10 -6 3 -82 10 -204 19 -133 10 -545 2 -566 -11 -3 -2 -32 -6 -64 -10
-32 -3 -68 -8 -79 -10 -12 -2 -36 -7 -54 -10 -85 -14 -155 -52 -192 -104 l-20
-28 52 -12 c29 -6 89 -13 133 -16 213 -11 247 -15 290 -30 76 -25 252 -137
327 -207 7 -6 58 -52 113 -102 55 -49 109 -98 120 -109 184 -170 358 -259 575
-292 92 -14 400 -14 490 1 69 10 109 15 188 21 72 5 84 4 123 -19 24 -13 66
-37 94 -52 240 -135 585 -364 690 -458 l49 -45 -57 -12 c-141 -29 -287 9 -486
125 -181 106 -349 178 -465 200 -65 12 -283 14 -303 2 -4 -3 -35 -8 -68 -12
-32 -3 -62 -8 -65 -10 -3 -2 -34 -6 -70 -10 -36 -4 -67 -8 -70 -10 -3 -2 -41
-6 -85 -10 -44 -4 -93 -9 -110 -11 -16 -2 -144 -4 -282 -4 l-253 -1 0 -44 0
-44 53 -14 c28 -8 97 -20 152 -27 158 -19 198 -30 285 -77 185 -100 414 -215
485 -244 79 -32 83 -32 235 -31 85 0 202 3 260 7 58 3 137 8 175 10 39 1 117
6 175 10 209 13 239 14 495 20 l260 6 74 -60 c180 -147 259 -220 481 -441 233
-233 321 -327 348 -374 l23 -39 -58 6 c-76 8 -91 11 -154 38 -81 33 -170 95
-309 214 -298 253 -385 285 -840 310 -276 14 -393 27 -495 52 -181 44 -226 53
-284 59 -63 6 -63 6 -56 -17 19 -65 46 -82 237 -149 131 -46 169 -68 278 -160
285 -240 413 -328 503 -346 50 -10 232 -40 298 -49 25 -3 57 -8 70 -10 13 -2
44 -6 69 -9 25 -3 54 -8 65 -10 11 -2 47 -7 80 -10 33 -4 71 -9 85 -11 24 -5
65 -10 160 -21 25 -2 92 -11 150 -19 58 -9 121 -18 140 -20 112 -16 228 -47
265 -71 11 -7 38 -39 60 -70 22 -31 49 -68 61 -83 98 -124 333 -472 426 -631
54 -92 128 -234 128 -245 0 -11 -28 -4 -87 24 -78 37 -215 171 -294 288 -70
103 -247 279 -327 326 -102 60 -235 107 -466 164 -332 82 -412 107 -547 174
-136 67 -155 75 -215 94 l-42 13 14 -51 c16 -62 30 -74 166 -147 102 -54 181
-121 278 -236 52 -61 110 -130 180 -214 100 -121 167 -188 208 -209 55 -28
278 -110 547 -201 280 -95 441 -155 603 -223 l122 -52 71 -143 c155 -316 298
-684 369 -947 10 -38 21 -78 25 -87 17 -42 -53 -8 -111 54 -67 70 -100 123
-277 448 -52 97 -128 199 -186 252 -80 73 -163 124 -362 223 -96 48 -205 103
-244 122 -105 54 -269 158 -373 237 -52 39 -102 77 -113 84 -16 12 -21 11 -44
-12 -14 -14 -25 -32 -25 -41 0 -9 63 -78 139 -153 148 -145 187 -198 286 -387
115 -219 180 -320 244 -381 17 -16 124 -88 238 -161 115 -72 257 -162 316
-200 213 -135 366 -237 501 -334 70 -50 94 -73 103 -100 11 -36 64 -287 82
-394 6 -33 13 -76 17 -95 3 -19 7 -44 9 -55 2 -11 8 -54 14 -95 16 -104 19
-132 27 -239 7 -93 7 -93 -14 -82 -41 22 -83 115 -157 346 -78 244 -136 354
-239 460 -105 106 -148 141 -406 315 -247 168 -307 219 -355 304 -35 62 -89
126 -107 126 -16 0 0 -98 27 -160 12 -30 37 -88 55 -129 17 -40 34 -85 36
-100 3 -14 19 -78 36 -141 90 -341 188 -497 445 -716 310 -265 426 -370 608
-549 l102 -101 3 -69 c8 -175 -2 -698 -14 -762 -2 -10 -7 -61 -10 -113 -17
-246 -30 -276 -79 -182 -49 95 -58 149 -62 367 -3 167 -7 200 -36 298 -51 172
-141 295 -433 589 -128 128 -244 253 -258 278 -14 25 -41 91 -59 147 -18 56
-37 99 -42 96 -11 -6 -28 -50 -34 -86 -3 -22 9 -103 24 -152 25 -84 33 -134
38 -228 8 -170 15 -224 40 -323 28 -112 55 -165 139 -274 261 -338 514 -694
650 -917 l39 -63 -6 -87 c-4 -49 -13 -120 -21 -158 -8 -39 -17 -82 -20 -95
-10 -52 -16 -73 -60 -242 -25 -95 -66 -240 -91 -323 -26 -82 -48 -154 -49
-160 -2 -5 -6 -23 -11 -40 -17 -64 -39 -71 -62 -17 -16 38 -22 229 -9 317 3
22 8 68 11 103 4 35 8 71 10 80 1 9 8 68 15 130 10 91 10 125 0 170 -31 141
-99 277 -277 558 -67 105 -141 229 -165 275 -41 79 -43 89 -45 174 -1 50 -2
93 -2 98 -2 12 -46 8 -63 -5 -12 -10 -17 -44 -22 -163 -4 -82 -8 -159 -10
-170 -1 -11 -6 -49 -11 -85 -4 -36 -9 -73 -10 -82 -22 -116 -24 -307 -5 -398
8 -37 38 -112 73 -179 71 -137 151 -314 213 -466 25 -60 48 -119 53 -130 39
-88 181 -462 186 -489 14 -71 -205 -559 -423 -943 -59 -104 -90 -149 -97 -142
-5 5 -11 54 -13 107 -3 96 -3 99 43 212 135 329 162 486 120 680 -18 85 -92
308 -160 485 -73 189 -114 312 -116 348 -2 29 9 160 16 198 7 33 -10 41 -48
23 -37 -18 -40 -24 -53 -124 -8 -58 -50 -242 -68 -294 -8 -23 -26 -71 -40
-107 -25 -67 -51 -159 -59 -214 -3 -16 -8 -41 -11 -55 -11 -50 -17 -97 -23
-200 -6 -104 -5 -107 32 -210 20 -58 50 -152 66 -210 74 -274 90 -336 94 -350
2 -8 17 -71 33 -140 17 -69 37 -163 46 -210 30 -166 33 -146 -40 -255 -246
-365 -693 -918 -731 -904 -16 6 20 144 58 225 18 37 70 135 117 218 154 274
173 333 167 520 -2 67 -6 130 -8 141 -3 11 -8 42 -11 68 -4 27 -9 59 -12 70
-4 23 -7 40 -25 142 -15 88 -16 97 -23 135 -28 174 -23 338 15 448 23 68 24
63 -5 58 -60 -11 -80 -39 -126 -176 -30 -88 -76 -185 -105 -220 -27 -32 -84
-151 -132 -275 -77 -196 -115 -328 -130 -456 -16 -134 -4 -476 22 -659 4 -25
9 -70 11 -100 2 -30 6 -91 9 -135 5 -77 9 -109 21 -166 4 -23 -11 -41 -127
-150 -73 -68 -139 -131 -148 -139 -270 -243 -501 -429 -615 -494 l-49 -29 6
54 c13 106 87 219 311 474 68 77 139 165 158 195 59 93 64 112 113 410 3 19 8
125 10 235 3 110 7 225 9 255 5 66 34 148 77 215 29 46 30 51 18 87 -7 21 -16
38 -20 38 -15 0 -88 -94 -135 -174 -46 -80 -96 -147 -140 -191 -41 -41 -148
-181 -189 -246 -168 -270 -236 -419 -265 -584 -5 -33 -12 -69 -14 -81 -2 -12
-7 -45 -11 -74 -4 -29 -8 -61 -10 -70 -2 -9 -6 -43 -9 -76 -7 -66 -15 -134
-21 -179 -2 -16 -7 -57 -10 -90 -7 -62 -34 -248 -40 -275 -2 -8 -4 -18 -4 -22
-5 -48 -460 -333 -786 -493 -205 -101 -214 -104 -208 -72 10 49 110 133 395
329 124 86 167 132 217 232 58 118 105 261 206 621 47 165 89 314 94 331 11
39 34 76 82 134 26 31 62 100 56 107 -3 2 -23 -1 -45 -6 -45 -13 -109 -61
-141 -106 -38 -56 -85 -100 -184 -174 -258 -192 -441 -431 -569 -741 -6 -14
-14 -34 -19 -45 -5 -11 -46 -132 -92 -270 -90 -267 -120 -345 -171 -440 -69
-128 -48 -114 -351 -233 -227 -89 -568 -203 -705 -237 -119 -29 -220 -42 -220
-28 0 19 50 76 99 112 51 38 84 56 413 215 168 82 284 156 337 215 69 77 110
153 216 400 112 259 170 342 319 452 44 33 81 65 82 72 11 74 9 80 -28 72 -57
-12 -132 -51 -257 -134 -66 -44 -193 -116 -281 -160 -87 -44 -185 -96 -217
-117 -122 -77 -288 -275 -528 -629 -183 -270 -263 -372 -407 -521 -78 -81
-117 -99 -263 -119 -22 -3 -47 -8 -55 -10 -8 -2 -35 -7 -60 -10 -25 -3 -56 -8
-70 -10 -14 -2 -43 -7 -65 -9 -110 -14 -213 -28 -235 -31 -109 -19 -265 -24
-280 -9 -14 14 42 79 84 99 72 32 219 86 271 99 45 11 224 71 262 88 26 12 51
22 54 22 3 1 33 18 66 38 62 39 158 134 204 203 15 22 74 112 132 200 122 186
171 240 287 317 104 70 114 77 128 105 20 36 15 43 -25 37 -78 -12 -127 -25
-310 -87 -103 -35 -249 -79 -323 -97 -197 -48 -264 -85 -414 -230 -99 -95
-193 -202 -346 -395 -57 -71 -108 -134 -114 -140 -6 -5 -27 -30 -46 -55 -83
-107 -170 -193 -220 -216 -33 -16 -96 -19 -326 -15 -46 1 -78 22 -178 119 -73
71 -163 178 -291 347 -189 248 -287 354 -419 452 -91 68 -181 104 -381 154
-66 16 -208 58 -315 93 -107 35 -219 66 -247 69 l-53 5 26 -33 c29 -39 72 -72
128 -100 75 -37 194 -170 296 -328 244 -380 295 -419 732 -561 223 -73 301
-112 332 -165 l20 -34 -130 7 c-71 4 -142 9 -159 12 -16 2 -52 6 -80 9 -100
12 -333 47 -459 70 -140 26 -128 19 -245 135 -38 37 -133 145 -164 185 -50 65
-126 174 -236 337 -169 251 -260 370 -369 482 -100 102 -139 129 -312 216
-141 71 -293 158 -360 205 -88 63 -204 115 -253 115 -44 0 42 -119 136 -186
111 -81 159 -158 281 -449 88 -209 142 -302 223 -382 71 -71 132 -108 409
-245 270 -135 346 -179 394 -229 32 -34 38 -74 10 -74 -16 1 -108 22 -155 36
-16 5 -92 27 -168 49 -246 72 -426 136 -741 263 -48 19 -94 46 -115 67 -64 63
-131 213 -256 565 -76 216 -163 441 -187 484 -106 192 -256 360 -499 562 -69
57 -150 133 -180 169 -61 72 -97 97 -153 105 l-37 6 16 -31 c9 -17 40 -62 69
-99 67 -87 72 -102 177 -496 108 -409 190 -616 279 -705 25 -25 122 -97 215
-160 184 -124 315 -240 315 -279 0 -29 -5 -28 -199 70 -243 122 -525 286 -708
412 -102 70 -119 114 -138 357 -5 70 -19 194 -30 265 -2 17 -9 75 -15 130 -14
129 -55 333 -80 395 -85 217 -255 489 -401 645 -69 73 -107 122 -135 175 -50
92 -143 198 -164 185 -15 -9 1 -69 45 -165 52 -111 53 -120 60 -355 15 -533
37 -620 216 -830 51 -60 98 -115 103 -121 91 -96 205 -256 243 -340 38 -84 52
-144 32 -144 -48 0 -363 248 -624 491 -22 21 -53 50 -70 65 -16 14 -77 72
-134 127 l-104 100 7 71 c4 39 9 85 11 101 2 17 6 68 10 114 4 47 8 92 10 100
3 17 15 145 21 221 4 67 5 402 0 426 -2 11 -7 47 -10 79 -25 226 -113 466
-263 718 -42 68 -76 139 -83 170 -16 68 -39 125 -62 160 -19 27 -75 63 -84 54
-4 -4 12 -90 33 -177 11 -43 5 -182 -12 -281 -12 -72 -66 -434 -73 -494 -18
-135 -15 -244 9 -320 23 -74 70 -174 125 -266 92 -152 163 -294 188 -374 18
-59 27 -125 17 -125 -10 0 -98 93 -185 195 -38 44 -78 91 -90 105 -12 14 -35
43 -51 65 -17 22 -36 46 -43 53 -48 51 -311 417 -400 558 l-32 51 36 169 c19
93 38 180 40 194 3 14 10 45 15 70 6 25 12 54 15 65 16 81 99 386 138 504 49
152 59 227 43 352 -8 55 -10 73 -23 134 -7 37 -88 323 -114 405 -18 57 -32
125 -45 220 -4 25 -15 64 -26 88 -21 50 -65 106 -73 94 -6 -10 -8 -85 -6 -197
1 -96 -25 -186 -156 -546 -100 -276 -123 -358 -131 -461 -10 -137 21 -276 116
-511 27 -67 55 -141 61 -165 12 -47 12 -220 0 -227 -9 -5 -29 24 -78 115 -16
30 -51 93 -77 140 -118 212 -251 494 -329 699 -54 142 -56 121 31 351 114 303
210 530 334 788 118 246 123 261 123 427 1 123 -3 196 -19 400 -2 28 -7 79 -9
115 -14 176 -19 226 -21 240 -3 20 -23 14 -46 -13 -21 -25 -26 -47 -34 -131
-8 -85 -38 -142 -255 -481 -109 -171 -184 -318 -220 -434 -34 -109 -35 -126
-16 -213 8 -35 18 -94 22 -133 3 -38 8 -79 10 -90 27 -139 20 -413 -10 -443
-26 -26 -42 -6 -71 85 -15 48 -34 106 -41 129 -23 73 -82 287 -99 359 -9 39
-18 77 -20 85 -21 87 -47 220 -65 336 l-22 142 82 128 c46 71 112 172 148 224
36 52 79 115 96 140 17 25 114 155 215 290 159 210 264 364 269 393 1 4 10 35
21 70 28 92 45 211 56 397 3 52 13 122 21 155 24 92 25 98 31 135 6 37 7 49 4
92 l-1 27 -33 -19 c-28 -17 -37 -31 -51 -83 -36 -131 -62 -164 -380 -487 -100
-102 -203 -212 -230 -244 -121 -150 -161 -303 -167 -636 -1 -64 -8 -139 -15
-166 -24 -96 -82 -201 -97 -177 -4 7 -12 58 -23 143 -2 14 -6 63 -9 110 -4 47
-9 96 -11 110 -2 14 -7 201 -11 415 l-6 390 74 69 c41 37 135 126 209 196 74
71 146 138 160 150 436 373 531 472 614 642 43 89 74 166 81 198 2 8 15 59 29
114 14 54 28 109 30 123 11 56 37 133 71 201 19 40 39 90 43 110 29 126 -34
105 -104 -35 -46 -90 -103 -140 -364 -312 -449 -296 -491 -347 -640 -785 -37
-111 -76 -218 -85 -240 -22 -53 -64 -113 -82 -120 -15 -6 -14 32 2 148 6 44
13 94 20 151 5 43 40 277 50 340 2 11 9 45 15 75 6 30 13 70 16 89 3 19 10 45
15 58 5 13 6 23 4 23 -2 0 -1 10 4 23 5 13 12 41 15 62 4 22 14 47 23 57 46
51 292 213 803 528 74 46 158 97 185 115 28 17 67 42 87 54 82 49 179 183 292
401 117 226 167 301 259 382 168 150 182 169 175 242 l-3 36 -100 -69 c-236
-165 -295 -199 -570 -335 -302 -149 -444 -235 -511 -308 -70 -76 -134 -178
-264 -423 -65 -122 -91 -165 -142 -232 -54 -71 -138 -122 -124 -75 3 9 7 28
10 42 29 172 277 826 412 1085 22 43 89 84 204 124 30 11 91 33 135 49 44 16
265 96 490 177 311 112 426 158 475 190 75 48 158 131 295 295 165 196 225
252 352 331 127 79 186 126 177 141 -3 5 2 18 12 29 16 18 16 19 -1 19 -12 0
-15 5 -11 16 4 11 2 14 -6 11 -7 -3 -78 -35 -158 -70 -225 -101 -348 -141
-680 -226 -342 -87 -475 -170 -690 -431 -120 -146 -146 -175 -199 -228 -30
-29 -73 -65 -96 -80 -45 -30 -121 -59 -131 -50 -3 3 4 21 14 39 10 19 34 61
52 94 108 196 505 775 601 879 11 11 19 24 19 28 0 11 43 27 89 34 20 3 47 7
61 9 49 8 205 29 295 41 65 8 131 16 147 20 25 4 227 34 273 39 22 3 65 10 95
15 30 5 78 12 105 16 28 3 57 8 67 9 9 2 38 6 65 10 26 4 59 9 73 11 14 2 43
7 65 10 106 16 218 85 445 274 211 176 232 189 420 255 91 31 170 61 175 65
12 10 7 100 -5 100 -5 0 -95 -20 -202 -44 -106 -24 -230 -47 -275 -51 -46 -3
-91 -8 -101 -10 -10 -2 -61 -6 -113 -9 -52 -4 -105 -9 -119 -11 -24 -4 -123
-13 -225 -20 -98 -7 -151 -17 -225 -41 -129 -43 -216 -100 -455 -294 -107 -87
-236 -169 -299 -190 -53 -17 -122 -21 -140 -7 -13 10 -7 21 42 77 130 147 521
530 654 638 11 9 28 24 37 33 9 8 43 37 76 65 33 27 69 57 80 68 19 17 35 18
265 11 135 -3 263 -8 285 -9 22 -2 99 -7 170 -11 72 -4 148 -9 170 -10 98 -7
342 -17 470 -19 195 -4 233 9 615 211 178 95 220 110 364 134 167 28 226 46
256 79 14 15 26 33 28 39 2 12 5 12 -318 12 -173 1 -244 5 -365 24 -82 12
-172 26 -200 29 -27 4 -63 9 -80 11 -16 3 -48 7 -70 11 -145 21 -290 9 -416
-34 -54 -19 -276 -127 -349 -170 -90 -53 -170 -91 -223 -107 -67 -19 -245 -27
-297 -13 l-35 10 38 33 c114 99 509 353 798 513 59 32 91 35 219 17 19 -2 58
-7 85 -9 28 -3 82 -9 120 -13 92 -10 327 -10 390 0 87 14 242 73 326 123 94
57 181 125 294 229 168 154 199 182 271 236 80 60 195 121 259 137 51 13 112
20 250 28 139 7 175 11 181 16 8 8 -18 73 -39 95 -23 26 -159 58 -367 88 -258
36 -622 25 -850 -25 -456 -101 -820 -324 -1080 -661 -89 -116 -143 -165 -224
-206 -79 -40 -263 -151 -386 -233 -47 -31 -123 -80 -169 -109 -83 -51 -83 -51
-76 -24 19 78 85 163 200 260 28 23 84 69 125 104 237 196 400 411 510 668 27
62 57 114 83 143 23 25 64 70 91 99 49 54 95 133 83 145 -13 14 -67 11 -104
-6z m-1880 -2285 c-3 -9 -8 -14 -10 -11 -3 3 -2 9 2 15 9 16 15 13 8 -4z
m11574 -7677 c-3 -8 -6 -5 -6 6 -1 11 2 17 5 13 3 -3 4 -12 1 -19z m-12067
-1950 c19 -24 26 -37 17 -29 -19 15 -61 71 -54 71 2 0 19 -19 37 -42z m10710
-912 c0 -2 -8 -10 -17 -17 -16 -13 -17 -12 -4 4 13 16 21 21 21 13z m-9689
-103 c13 -16 12 -17 -3 -4 -10 7 -18 15 -18 17 0 8 8 3 21 -13z m466 -195 c-3
-7 -5 -2 -5 12 0 14 2 19 5 13 2 -7 2 -19 0 -25z m6803 -1092 c0 -2 -9 -6 -20
-9 -11 -3 -18 -1 -14 4 5 9 34 13 34 5z m-75 -26 c-3 -5 -14 -10 -23 -9 -14 0
-13 2 3 9 27 11 27 11 20 0z m-2780 -620 c-3 -5 -12 -10 -18 -10 -7 0 -6 4 3
10 19 12 23 12 15 0z"/>
<path d="M8414 14563 c-9 -6 -11 -115 -10 -396 1 -214 -1 -390 -4 -392 -4 -2
-24 19 -46 47 -21 28 -43 56 -49 62 -5 6 -39 52 -74 101 -85 118 -282 365
-291 365 -4 0 -7 -458 -6 -1017 l1 -1018 70 -95 c38 -52 74 -100 80 -106 11
-13 61 -79 181 -244 46 -63 87 -119 92 -125 42 -55 43 -60 40 -236 l-3 -170
-94 71 c-120 90 -204 140 -312 183 -83 33 -250 79 -334 91 -186 27 -278 33
-700 51 -139 6 -267 14 -325 20 -25 3 -72 8 -105 11 -123 11 -287 41 -485 89
-227 54 -491 171 -635 280 -131 99 -179 177 -251 405 -6 17 -13 23 -84 62
-151 83 -320 64 -419 -48 -113 -128 -93 -342 43 -467 17 -16 68 -51 114 -79
46 -28 81 -55 78 -62 -2 -6 -36 -81 -74 -166 -38 -85 -109 -243 -157 -350 -99
-223 -100 -225 -154 -343 -23 -49 -41 -91 -41 -93 0 -2 -15 -36 -34 -76 -19
-40 -84 -185 -146 -323 -125 -279 -226 -502 -450 -995 -84 -184 -164 -360
-178 -390 -13 -30 -90 -197 -169 -370 -80 -173 -157 -340 -170 -370 -34 -74
-150 -322 -208 -445 -79 -169 -186 -379 -201 -396 -12 -14 -1 -28 98 -122 310
-292 640 -490 1045 -626 86 -29 276 -79 368 -97 22 -4 42 -8 45 -9 3 0 32 -5
65 -9 32 -4 67 -9 76 -11 136 -26 619 -26 769 0 14 2 45 7 70 10 25 3 54 7 65
9 11 2 56 12 100 21 442 91 886 304 1209 579 39 33 113 101 165 151 l93 92
-41 29 c-42 29 -67 72 -156 269 -15 33 -59 130 -97 215 -39 85 -83 182 -98
215 -15 33 -69 152 -120 265 -51 113 -108 239 -127 280 -19 41 -63 138 -98
215 -34 77 -77 172 -95 210 -18 39 -60 133 -95 210 -62 137 -629 1387 -687
1515 -17 36 -73 160 -125 275 -52 116 -105 233 -118 260 -107 234 -138 306
-132 311 2 3 31 -2 63 -10 32 -9 75 -18 94 -21 19 -3 42 -8 50 -10 8 -2 26 -6
40 -9 27 -4 94 -16 125 -22 11 -3 103 -20 205 -39 102 -18 196 -36 210 -39 14
-2 86 -16 160 -30 75 -14 156 -29 180 -35 25 -5 60 -12 78 -16 18 -3 65 -12
105 -21 39 -9 90 -20 112 -24 61 -13 326 -79 361 -90 17 -6 40 -12 51 -14 11
-3 51 -14 89 -26 38 -12 76 -23 84 -25 30 -7 285 -98 325 -115 11 -5 49 -21
85 -36 104 -42 287 -138 385 -202 230 -149 381 -306 474 -492 l41 -82 0 -3025
0 -3025 -112 60 c-62 33 -157 83 -211 112 -54 29 -100 50 -103 47 -4 -4 198
-467 306 -702 18 -38 49 -108 70 -155 21 -47 59 -130 85 -185 26 -55 62 -133
81 -173 29 -63 37 -73 56 -70 12 2 28 14 35 28 19 40 63 140 63 145 0 3 108
239 230 500 111 240 272 615 264 615 -7 0 -214 -104 -320 -161 -50 -27 -94
-49 -98 -49 -7 0 -1 5933 6 6020 2 27 19 73 41 115 188 355 617 631 1292 834
181 55 544 146 660 167 17 3 48 9 70 14 22 5 56 12 75 15 19 3 51 10 70 15 19
5 52 12 74 16 44 6 52 8 156 29 41 8 89 17 105 20 17 2 41 7 55 10 106 21 128
25 150 29 70 11 358 70 449 92 57 14 105 23 108 21 2 -3 -12 -44 -32 -93 -43
-105 -43 -105 -154 -346 -15 -35 -38 -85 -51 -113 -50 -111 -197 -434 -248
-545 -26 -57 -287 -632 -347 -765 -13 -27 -111 -246 -220 -485 -108 -239 -205
-453 -215 -475 -119 -264 -316 -696 -343 -755 -34 -75 -64 -140 -113 -247
-148 -324 -197 -408 -244 -418 -16 -4 -30 -11 -30 -16 0 -16 164 -171 272
-259 197 -160 407 -287 668 -403 203 -91 503 -173 780 -212 190 -27 589 -27
770 1 496 75 850 209 1250 473 47 30 87 58 90 61 3 3 23 19 45 35 35 25 138
110 171 140 45 41 113 107 133 128 l23 26 -26 33 c-23 31 -221 419 -294 578
-17 36 -62 132 -101 213 -39 82 -71 150 -71 152 0 1 -26 58 -59 126 -32 68
-132 284 -221 479 -89 195 -197 432 -240 525 -43 94 -89 195 -103 225 -14 30
-91 201 -172 380 -81 179 -173 384 -205 455 -32 72 -71 159 -88 195 -35 76
-258 574 -361 806 -39 89 -71 166 -71 170 0 5 34 27 76 49 89 47 146 93 178
144 104 165 59 404 -89 471 -111 50 -227 46 -336 -12 -78 -41 -103 -71 -124
-152 -42 -162 -118 -261 -285 -371 -170 -113 -410 -207 -635 -251 -22 -4 -44
-8 -50 -10 -5 -1 -23 -5 -40 -8 -16 -3 -40 -8 -52 -10 -34 -7 -232 -35 -290
-41 -29 -3 -75 -8 -102 -11 -48 -5 -70 -7 -251 -19 -139 -9 -219 -14 -330 -20
-590 -33 -844 -108 -1118 -331 -30 -25 -57 -43 -59 -40 -4 3 -5 206 -1 301 1
38 8 51 98 179 27 38 190 261 203 276 7 8 23 31 37 50 13 19 27 37 30 40 28
26 91 127 98 157 4 21 7 97 6 168 -3 218 -6 1182 -5 1490 1 160 1 304 1 320
-1 30 -1 30 -57 -30 -52 -57 -96 -114 -270 -351 -72 -99 -132 -168 -139 -162
-4 5 -6 154 -5 463 0 264 -1 300 -12 311 -10 11 -299 17 -313 7z m203 -360
c-1 -93 -5 -173 -9 -178 -10 -16 -78 -18 -79 -3 0 7 -3 22 -5 33 -7 27 -5 295
2 306 3 5 25 9 49 9 l43 0 -1 -167z m-495 -331 c12 -16 32 -41 43 -56 11 -16
62 -85 114 -155 109 -146 122 -173 123 -250 1 -130 -4 -134 -62 -49 -32 48
-101 138 -150 198 -12 14 -43 57 -69 95 -46 67 -47 73 -49 145 -1 110 7 123
50 72z m936 -59 c3 -98 -1 -107 -168 -327 -116 -154 -145 -185 -158 -171 -8 8
-2 115 8 155 5 19 56 96 112 171 57 75 112 149 123 164 36 49 67 85 74 85 4 0
8 -35 9 -77z m4 -450 c1 -54 -3 -78 -16 -99 -50 -79 -300 -404 -310 -404 -8 0
-11 15 -10 43 1 23 2 54 3 68 1 24 34 79 109 180 15 20 60 83 101 140 78 109
112 151 118 146 2 -2 4 -35 5 -74z m-905 -16 c34 -45 96 -127 138 -182 42 -55
84 -113 92 -130 21 -38 25 -167 5 -163 -17 4 -272 344 -300 401 -25 50 -32
157 -9 157 6 -1 40 -38 74 -83z m131 -600 l116 -160 1 -61 c0 -34 -1 -67 -3
-73 -8 -24 -61 16 -103 79 -23 34 -84 117 -135 184 l-93 123 3 78 c2 43 4 80
5 83 4 12 101 -106 209 -253z m773 201 c2 -96 -2 -113 -44 -173 -23 -33 -45
-64 -50 -70 -4 -5 -49 -64 -98 -129 -49 -66 -99 -126 -111 -134 -20 -15 -20
-14 -16 64 4 87 -3 73 136 263 31 43 81 112 110 154 29 43 57 77 62 77 6 0 10
-24 11 -52z m2 -488 c-5 -65 -19 -100 -59 -145 -19 -22 -70 -89 -114 -150 -94
-132 -137 -182 -147 -172 -4 4 -9 30 -11 58 -4 61 14 99 102 213 35 45 82 110
106 145 23 35 59 82 79 104 35 39 36 39 42 16 3 -13 4 -44 2 -69z m-956 65
c20 -14 181 -228 264 -351 34 -51 35 -57 32 -121 -3 -38 -6 -69 -8 -71 -6 -6
-55 52 -113 132 -31 43 -82 110 -112 150 -102 130 -100 127 -100 205 0 39 3
71 8 71 4 0 17 -7 29 -15z m34 -352 c13 -16 12 -17 -3 -4 -17 13 -22 21 -14
21 2 0 10 -8 17 -17z m4065 -420 c14 -30 109 -240 213 -466 104 -227 200 -437
214 -467 13 -30 65 -143 115 -250 49 -107 99 -217 112 -245 35 -79 215 -472
253 -555 19 -41 89 -195 156 -342 66 -146 132 -290 145 -320 13 -29 68 -150
121 -268 54 -118 111 -244 127 -280 17 -36 74 -165 128 -286 55 -122 109 -243
121 -270 12 -27 27 -62 34 -79 7 -16 26 -61 43 -100 17 -38 40 -93 51 -121
l20 -52 -1885 0 c-1036 0 -1886 3 -1888 7 -6 8 78 201 248 574 13 28 77 169
141 312 64 143 127 283 140 310 13 28 44 95 68 150 25 55 59 129 75 165 17 36
71 155 120 265 49 110 105 234 125 275 19 41 51 113 72 160 40 91 69 154 134
293 22 49 41 90 41 92 0 2 15 36 34 77 19 40 77 168 129 284 135 299 136 300
178 392 22 46 39 85 39 87 0 2 16 39 36 82 20 43 90 197 156 343 143 315 136
302 150 294 5 -4 21 -31 34 -61z m-7207 -5 c16 -35 63 -134 105 -222 42 -87
76 -160 76 -161 0 -2 24 -54 54 -117 30 -62 77 -165 106 -228 29 -63 68 -149
87 -190 20 -41 60 -129 90 -195 31 -66 68 -147 83 -180 15 -33 48 -105 73
-160 25 -55 61 -136 82 -180 20 -44 71 -154 112 -245 41 -91 83 -183 93 -205
10 -22 79 -174 154 -338 75 -164 136 -300 136 -302 0 -2 23 -51 50 -110 28
-59 50 -108 50 -110 0 -3 26 -59 112 -245 17 -36 37 -83 46 -105 8 -22 18 -44
22 -50 4 -5 29 -59 55 -120 26 -60 61 -139 77 -175 77 -166 198 -446 198 -456
0 -1 -849 -2 -1886 -2 l-1886 0 5 33 c3 18 21 67 41 109 20 42 36 78 36 81 0
2 20 47 45 99 25 53 45 98 45 100 0 3 25 57 55 121 30 65 55 119 55 120 0 2
16 39 36 82 20 43 56 121 79 173 24 52 57 124 73 160 17 36 51 112 77 170 26
58 62 137 80 175 36 79 38 83 165 364 51 112 112 247 136 299 24 51 44 95 44
97 0 2 15 36 34 77 18 40 56 123 84 183 28 61 67 146 87 190 21 44 57 125 82
180 25 55 55 123 68 150 13 28 48 104 78 170 30 66 74 161 97 210 23 50 61
133 85 185 24 52 56 124 73 160 163 354 196 426 205 453 4 9 9 17 11 17 3 0
19 -28 35 -62z m117 -95 c13 -31 22 -58 20 -60 -3 -4 -56 114 -56 124 0 15 15
-11 36 -64z m-208 -4460 c-10 -2 -26 -2 -35 0 -10 3 -2 5 17 5 19 0 27 -2 18
-5z m190 0 c-10 -2 -26 -2 -35 0 -10 3 -2 5 17 5 19 0 27 -2 18 -5z m6945 0
c-7 -2 -19 -2 -25 0 -7 3 -2 5 12 5 14 0 19 -2 13 -5z m240 0 c-7 -2 -21 -2
-30 0 -10 3 -4 5 12 5 17 0 24 -2 18 -5z"/>
</g>
</svg>
